<?xml version="1.0" standalone="no"?><!DOCTYPE svg PUBLIC "-//W3C//DTD SVG 1.1//EN" "http://www.w3.org/Graphics/SVG/1.1/DTD/svg11.dtd"><svg class="icon" height="512" viewBox="0 0 1024 1024" version="1.1" xmlns="http://www.w3.org/2000/svg"><path d="M375.60147 525.376659c18.273179-6.151094 38.315654 4.397147 44.7676 23.561625 6.451946 19.164478-3.131317 39.686884-21.404496 45.837978s-38.315654-4.397147-44.7676-23.561625C347.745029 552.050158 357.328291 531.527752 375.60147 525.376659zM631.848599 525.376659c18.273179-6.151094 38.315654 4.397147 44.7676 23.561625 6.451946 19.164478-3.131317 39.686884-21.404496 45.837978-18.273179 6.151094-38.315654-4.397147-44.7676-23.561625C603.992157 552.050158 613.57542 531.527752 631.848599 525.376659zM815.407218 518.28003c-1.681292-0.001023-3.325745 0.140193-4.979408 0.245593 0.222057-4.65195 0.36532-9.326413 0.369414-14.033621 0.01842-17.430998-1.620917-34.914184-4.703115-52.080146 5.824659-0.740874 11.649318-1.5104 17.46579-2.310625 0 0-43.123147-256.355599-304.85008-256.355599-231.858672 0-299.825646 182.073802-312.282353 253.94469 0 0 6.028297 1.394766 16.548908 3.313465-3.107781 17.148565-4.759397 34.805714-4.77884 52.847625-0.005117 4.671393 0.127913 9.312086 0.336668 13.930267-0.99056-0.037862-1.962701-0.151449-2.963495-0.152473-42.241057-0.045025-76.523861 34.163077-76.56991 76.405157-0.046049 42.241057 34.163077 76.522838 76.404134 76.56991 9.471722 0.010233 18.504446-1.782599 26.879184-4.92108 36.392862 96.731088 144.296407 166.951383 271.856641 167.090553 127.845737 0.137123 236.113579-70.155826 272.478811-167.142741 8.844435 3.586688 18.491143 5.610788 28.621874 5.622044 42.24208 0.046049 76.523861-34.161031 76.56991-76.404134C891.856377 552.606837 857.648274 518.327102 815.407218 518.28003zM851.822592 604.252077c-6.109138 21.201881-21.905916 25.107841-36.294624 26.592658-23.982204 2.474354-52.465932-9.342786-52.465932-9.342786C718.830649 725.629495 626.224508 786.866185 503.665171 783.411503c-184.516434-5.203512-230.372831-161.2618-230.372831-161.2618-9.67536 6.565533-29.17139 9.413394-49.264007 9.413394-15.811104 0-37.297464-9.550517-40.966017-34.497699-3.593851-24.436552 17.10968-40.013319 33.779338-44.559868 15.812127-4.312212 40.96704-7.186679 40.96704-7.186679 0.820692-21.724791 2.862187-41.87369 5.963829-60.561307 1.552356-9.353019 3.37691-18.3356 5.441942-26.978445 21.047362 2.375094 45.920866 4.232394 72.275093 4.242627l45.793976-74.222445 40.72861 81.933057c0 0 162.033373 5.662977 335.255577-12.377912 2.723018 12.655228 4.431939 23.514553 5.51562 31.580253 4.493338 33.415041 2.116197 55.81112 2.116197 55.81112 29.535687 1.650593 48.940642 6.321986 60.919465 12.071943C847.524706 564.355415 858.274538 581.860091 851.822592 604.252077zM769.417791 277.835819c0 0 68.99642-81.214696 171.052794-66.840314 35.935444 53.184293 22.5199 138.471748-5.749958 176.802752-33.060977-20.12434-63.246463-28.748764-114.994034-30.185486C819.727617 357.612771 806.789956 310.177412 769.417791 277.835819zM204.673519 357.612771c-51.747571 1.437745-81.933057 10.06217-114.994034 30.185486-28.268834-38.331004-41.685401-123.618459-5.749958-176.802752 102.057397-14.374382 171.052794 66.840314 171.052794 66.840314C217.610156 310.177412 204.673519 357.612771 204.673519 357.612771z" /></svg>